<?xml version="1.0" standalone="no"?>
<!DOCTYPE svg PUBLIC "-//W3C//DTD SVG 20010904//EN"
 "http://www.w3.org/TR/2001/REC-SVG-20010904/DTD/svg10.dtd">
<svg version="1.0" xmlns="http://www.w3.org/2000/svg"
 width="213.000000pt" height="211.000000pt" viewBox="0 0 213.000000 211.000000"
 preserveAspectRatio="xMidYMid meet">

<g transform="translate(0.000000,211.000000) scale(0.100000,-0.100000)"
fill="#000000" stroke="none">
<path d="M1145 1945 c-49 -13 -108 -24 -130 -24 -22 -1 -74 -8 -115 -17 -62
-13 -114 -15 -305 -10 -298 9 -360 1 -426 -55 -62 -52 -64 -65 -48 -339 14
-226 17 -522 9 -752 l-5 -137 33 -33 c17 -19 32 -40 32 -47 0 -18 223 -248
292 -302 38 -29 92 -51 112 -43 7 3 18 -2 25 -10 7 -9 27 -18 45 -21 29 -5
245 23 346 45 25 5 233 13 462 17 478 9 448 3 470 103 14 66 12 984 -3 1095
-27 204 -24 194 -70 241 -24 24 -47 44 -51 44 -4 0 -25 18 -45 41 -46 49 -197
179 -209 179 -4 0 -18 10 -32 23 -22 20 -34 22 -160 24 -116 1 -151 -2 -227
-22z m334 -147 c22 -13 86 -66 142 -118 l103 -95 -115 -7 c-63 -3 -147 -13
-186 -22 -55 -12 -135 -16 -320 -16 -137 0 -294 -6 -351 -12 -91 -10 -104 -9
-120 6 -10 9 -28 16 -39 16 -11 0 -28 8 -37 19 -9 10 -41 26 -71 36 -40 12
-67 30 -104 68 -28 29 -51 58 -51 66 0 11 42 12 243 6 199 -6 256 -5 322 8 44
9 107 18 140 22 33 3 92 14 130 24 43 11 109 19 172 20 89 1 108 -2 142 -21z
m315 -406 c7 -48 13 -1009 6 -1015 -3 -3 -174 -8 -380 -12 -258 -4 -395 -11
-440 -20 -36 -8 -114 -21 -175 -30 -60 -8 -119 -17 -130 -20 -19 -4 -20 0 -14
88 7 112 14 499 14 779 0 198 1 207 20 214 11 3 171 10 355 13 253 6 357 12
425 25 49 10 91 18 92 19 0 1 51 1 111 -1 l110 -3 6 -37z"/>
<path d="M1623 1167 c-4 -7 -16 -16 -25 -20 -24 -9 -23 -28 1 -34 15 -4 21
-15 23 -47 3 -40 4 -41 42 -44 28 -2 37 0 34 10 -3 7 -14 14 -26 16 -17 3 -22
10 -22 33 0 27 2 29 41 29 52 0 48 24 -4 28 -23 2 -37 8 -37 17 0 20 -17 28
-27 12z"/>
<path d="M1450 1131 c-26 -50 13 -105 71 -99 30 3 34 7 37 37 6 63 -80 113
-108 62z m68 -23 c19 -19 15 -48 -7 -48 -24 0 -45 25 -37 45 7 18 27 20 44 3z"/>
<path d="M1190 1093 c-25 -8 -52 -21 -60 -28 -8 -7 -39 -23 -68 -34 -46 -18
-53 -19 -59 -6 -9 25 -62 47 -92 40 -53 -13 -70 -52 -39 -92 21 -27 31 -88 37
-230 6 -148 7 -154 33 -179 32 -32 72 -34 101 -5 20 19 22 34 25 153 3 93 8
138 18 152 20 30 153 96 192 96 28 0 35 -5 48 -35 8 -19 23 -102 33 -186 20
-156 34 -193 74 -208 46 -17 91 19 90 72 -1 64 -35 293 -51 347 -12 39 -30 69
-62 101 -61 62 -128 74 -220 42z"/>
</g>
</svg>
