<svg width="203.52" height="22.4" viewBox="0 0 203.52 22.4" xmlns="http://www.w3.org/2000/svg"><g id="svgGroup" stroke-linecap="round" fill-rule="evenodd" font-size="9pt" stroke="#000" stroke-width="0.25mm" fill="#000" style="stroke:#000;stroke-width:0.25mm;fill:#000"><path d="M 49.36 9.6 L 50.96 9.6 L 56.16 9.6 Q 56 10.24 56 11.2 Q 56 12.12 56.16 12.8 Q 56 13.44 56 14.4 Q 56 15.32 56.16 16 Q 56 16.64 56 17.6 Q 56 18.52 56.16 19.2 Q 56 19.84 56 20.8 Q 56 21.72 56.16 22.4 L 59.36 22.4 A 4.924 4.924 0 0 0 59.403 22.198 Q 59.462 21.889 59.492 21.534 A 8.945 8.945 0 0 0 59.52 20.8 A 10.123 10.123 0 0 0 59.51 20.333 Q 59.479 19.678 59.36 19.2 A 4.924 4.924 0 0 0 59.403 18.998 Q 59.462 18.689 59.492 18.334 A 8.945 8.945 0 0 0 59.52 17.6 A 10.123 10.123 0 0 0 59.51 17.133 Q 59.479 16.478 59.36 16 A 4.924 4.924 0 0 0 59.403 15.798 Q 59.462 15.489 59.492 15.134 A 8.945 8.945 0 0 0 59.52 14.4 A 10.123 10.123 0 0 0 59.51 13.933 Q 59.479 13.278 59.36 12.8 A 4.924 4.924 0 0 0 59.403 12.598 Q 59.462 12.289 59.492 11.934 A 8.945 8.945 0 0 0 59.52 11.2 A 10.123 10.123 0 0 0 59.51 10.733 Q 59.479 10.078 59.36 9.6 L 57.36 9.6 A 4.924 4.924 0 0 0 57.403 9.398 Q 57.462 9.089 57.492 8.734 A 8.945 8.945 0 0 0 57.52 8 A 10.123 10.123 0 0 0 57.51 7.533 Q 57.479 6.878 57.36 6.4 L 50.96 6.4 Q 50.8 7.04 50.8 8 Q 50.8 8.92 50.96 9.6 Q 51.079 10.078 51.11 10.733 A 10.123 10.123 0 0 1 51.12 11.2 A 8.945 8.945 0 0 1 51.092 11.934 Q 51.062 12.289 51.003 12.598 A 4.924 4.924 0 0 1 50.96 12.8 L 49.76 12.8 Q 49.879 13.278 49.91 13.933 A 10.123 10.123 0 0 1 49.92 14.4 A 8.945 8.945 0 0 1 49.892 15.134 Q 49.862 15.489 49.803 15.798 A 4.924 4.924 0 0 1 49.76 16 Q 49.879 16.478 49.91 17.133 A 10.123 10.123 0 0 1 49.92 17.6 A 8.945 8.945 0 0 1 49.892 18.334 Q 49.862 18.689 49.803 18.998 A 4.924 4.924 0 0 1 49.76 19.2 Q 49.879 19.678 49.91 20.333 A 10.123 10.123 0 0 1 49.92 20.8 A 8.945 8.945 0 0 1 49.892 21.534 Q 49.862 21.889 49.803 22.198 A 4.924 4.924 0 0 1 49.76 22.4 L 46.56 22.4 Q 46.4 21.72 46.4 20.8 Q 46.4 19.84 46.56 19.2 Q 46.4 18.52 46.4 17.6 Q 46.4 16.64 46.56 16 Q 46.4 15.32 46.4 14.4 Q 46.4 13.44 46.56 12.8 Q 46.4 12.12 46.4 11.2 Q 46.4 10.24 46.56 9.6 Q 46.4 8.92 46.4 8 Q 46.4 7.04 46.56 6.4 L 49.36 6.4 Q 49.479 6.878 49.51 7.533 A 10.123 10.123 0 0 1 49.52 8 A 8.945 8.945 0 0 1 49.492 8.734 Q 49.462 9.089 49.403 9.398 A 4.924 4.924 0 0 1 49.36 9.6 Z M 113.36 9.6 L 114.96 9.6 L 120.16 9.6 Q 120 10.24 120 11.2 Q 120 12.12 120.16 12.8 Q 120 13.44 120 14.4 Q 120 15.32 120.16 16 Q 120 16.64 120 17.6 Q 120 18.52 120.16 19.2 Q 120 19.84 120 20.8 Q 120 21.72 120.16 22.4 L 123.36 22.4 A 4.924 4.924 0 0 0 123.403 22.198 Q 123.462 21.889 123.492 21.534 A 8.945 8.945 0 0 0 123.52 20.8 A 10.123 10.123 0 0 0 123.51 20.333 Q 123.479 19.678 123.36 19.2 A 4.924 4.924 0 0 0 123.403 18.998 Q 123.462 18.689 123.492 18.334 A 8.945 8.945 0 0 0 123.52 17.6 A 10.123 10.123 0 0 0 123.51 17.133 Q 123.479 16.478 123.36 16 A 4.924 4.924 0 0 0 123.403 15.798 Q 123.462 15.489 123.492 15.134 A 8.945 8.945 0 0 0 123.52 14.4 A 10.123 10.123 0 0 0 123.51 13.933 Q 123.479 13.278 123.36 12.8 A 4.924 4.924 0 0 0 123.403 12.598 Q 123.462 12.289 123.492 11.934 A 8.945 8.945 0 0 0 123.52 11.2 A 10.123 10.123 0 0 0 123.51 10.733 Q 123.479 10.078 123.36 9.6 L 121.36 9.6 A 4.924 4.924 0 0 0 121.403 9.398 Q 121.462 9.089 121.492 8.734 A 8.945 8.945 0 0 0 121.52 8 A 10.123 10.123 0 0 0 121.51 7.533 Q 121.479 6.878 121.36 6.4 L 114.96 6.4 Q 114.8 7.04 114.8 8 Q 114.8 8.92 114.96 9.6 Q 115.079 10.078 115.11 10.733 A 10.123 10.123 0 0 1 115.12 11.2 A 8.945 8.945 0 0 1 115.092 11.934 Q 115.062 12.289 115.003 12.598 A 4.924 4.924 0 0 1 114.96 12.8 L 113.76 12.8 Q 113.879 13.278 113.91 13.933 A 10.123 10.123 0 0 1 113.92 14.4 A 8.945 8.945 0 0 1 113.892 15.134 Q 113.862 15.489 113.803 15.798 A 4.924 4.924 0 0 1 113.76 16 Q 113.879 16.478 113.91 17.133 A 10.123 10.123 0 0 1 113.92 17.6 A 8.945 8.945 0 0 1 113.892 18.334 Q 113.862 18.689 113.803 18.998 A 4.924 4.924 0 0 1 113.76 19.2 Q 113.879 19.678 113.91 20.333 A 10.123 10.123 0 0 1 113.92 20.8 A 8.945 8.945 0 0 1 113.892 21.534 Q 113.862 21.889 113.803 22.198 A 4.924 4.924 0 0 1 113.76 22.4 L 110.56 22.4 Q 110.4 21.72 110.4 20.8 Q 110.4 19.84 110.56 19.2 Q 110.4 18.52 110.4 17.6 Q 110.4 16.64 110.56 16 Q 110.4 15.32 110.4 14.4 Q 110.4 13.44 110.56 12.8 Q 110.4 12.12 110.4 11.2 Q 110.4 10.24 110.56 9.6 Q 110.4 8.92 110.4 8 Q 110.4 7.04 110.56 6.4 L 113.36 6.4 Q 113.479 6.878 113.51 7.533 A 10.123 10.123 0 0 1 113.52 8 A 8.945 8.945 0 0 1 113.492 8.734 Q 113.462 9.089 113.403 9.398 A 4.924 4.924 0 0 1 113.36 9.6 Z M 193.36 9.6 L 194.96 9.6 L 200.16 9.6 Q 200 10.24 200 11.2 Q 200 12.12 200.16 12.8 Q 200 13.44 200 14.4 Q 200 15.32 200.16 16 Q 200 16.64 200 17.6 Q 200 18.52 200.16 19.2 Q 200 19.84 200 20.8 Q 200 21.72 200.16 22.4 L 203.36 22.4 A 4.924 4.924 0 0 0 203.403 22.198 Q 203.462 21.889 203.492 21.534 A 8.945 8.945 0 0 0 203.52 20.8 A 10.123 10.123 0 0 0 203.51 20.333 Q 203.479 19.678 203.36 19.2 A 4.924 4.924 0 0 0 203.403 18.998 Q 203.462 18.689 203.492 18.334 A 8.945 8.945 0 0 0 203.52 17.6 A 10.123 10.123 0 0 0 203.51 17.133 Q 203.479 16.478 203.36 16 A 4.924 4.924 0 0 0 203.403 15.798 Q 203.462 15.489 203.492 15.134 A 8.945 8.945 0 0 0 203.52 14.4 A 10.123 10.123 0 0 0 203.51 13.933 Q 203.479 13.278 203.36 12.8 A 4.924 4.924 0 0 0 203.403 12.598 Q 203.462 12.289 203.492 11.934 A 8.945 8.945 0 0 0 203.52 11.2 A 10.123 10.123 0 0 0 203.51 10.733 Q 203.479 10.078 203.36 9.6 L 201.36 9.6 A 4.924 4.924 0 0 0 201.403 9.398 Q 201.462 9.089 201.492 8.734 A 8.945 8.945 0 0 0 201.52 8 A 10.123 10.123 0 0 0 201.51 7.533 Q 201.479 6.878 201.36 6.4 L 194.96 6.4 Q 194.8 7.04 194.8 8 Q 194.8 8.92 194.96 9.6 Q 195.079 10.078 195.11 10.733 A 10.123 10.123 0 0 1 195.12 11.2 A 8.945 8.945 0 0 1 195.092 11.934 Q 195.062 12.289 195.003 12.598 A 4.924 4.924 0 0 1 194.96 12.8 L 193.76 12.8 Q 193.879 13.278 193.91 13.933 A 10.123 10.123 0 0 1 193.92 14.4 A 8.945 8.945 0 0 1 193.892 15.134 Q 193.862 15.489 193.803 15.798 A 4.924 4.924 0 0 1 193.76 16 Q 193.879 16.478 193.91 17.133 A 10.123 10.123 0 0 1 193.92 17.6 A 8.945 8.945 0 0 1 193.892 18.334 Q 193.862 18.689 193.803 18.998 A 4.924 4.924 0 0 1 193.76 19.2 Q 193.879 19.678 193.91 20.333 A 10.123 10.123 0 0 1 193.92 20.8 A 8.945 8.945 0 0 1 193.892 21.534 Q 193.862 21.889 193.803 22.198 A 4.924 4.924 0 0 1 193.76 22.4 L 190.56 22.4 Q 190.4 21.72 190.4 20.8 Q 190.4 19.84 190.56 19.2 Q 190.4 18.52 190.4 17.6 Q 190.4 16.64 190.56 16 Q 190.4 15.32 190.4 14.4 Q 190.4 13.44 190.56 12.8 Q 190.4 12.12 190.4 11.2 Q 190.4 10.24 190.56 9.6 Q 190.4 8.92 190.4 8 Q 190.4 7.04 190.56 6.4 L 193.36 6.4 Q 193.479 6.878 193.51 7.533 A 10.123 10.123 0 0 1 193.52 8 A 8.945 8.945 0 0 1 193.492 8.734 Q 193.462 9.089 193.403 9.398 A 4.924 4.924 0 0 1 193.36 9.6 Z M 16.56 9.6 L 17.76 9.6 L 19.76 9.6 Q 19.6 10.24 19.6 11.2 Q 19.6 12.12 19.76 12.8 Q 19.6 13.44 19.6 14.4 Q 19.6 15.32 19.76 16 Q 19.6 16.64 19.6 17.6 Q 19.6 18.52 19.76 19.2 Q 19.6 19.84 19.6 20.8 Q 19.6 21.72 19.76 22.4 L 22.16 22.4 A 4.924 4.924 0 0 0 22.203 22.198 Q 22.262 21.889 22.292 21.534 A 8.945 8.945 0 0 0 22.32 20.8 A 10.123 10.123 0 0 0 22.31 20.333 Q 22.279 19.678 22.16 19.2 A 4.924 4.924 0 0 0 22.203 18.998 Q 22.262 18.689 22.292 18.334 A 8.945 8.945 0 0 0 22.32 17.6 A 10.123 10.123 0 0 0 22.31 17.133 Q 22.279 16.478 22.16 16 A 4.924 4.924 0 0 0 22.203 15.798 Q 22.262 15.489 22.292 15.134 A 8.945 8.945 0 0 0 22.32 14.4 A 10.123 10.123 0 0 0 22.31 13.933 Q 22.279 13.278 22.16 12.8 A 4.924 4.924 0 0 0 22.203 12.598 Q 22.262 12.289 22.292 11.934 A 8.945 8.945 0 0 0 22.32 11.2 A 10.123 10.123 0 0 0 22.31 10.733 Q 22.279 10.078 22.16 9.6 L 20.96 9.6 A 4.924 4.924 0 0 0 21.003 9.398 Q 21.062 9.089 21.092 8.734 A 8.945 8.945 0 0 0 21.12 8 A 10.123 10.123 0 0 0 21.11 7.533 Q 21.079 6.878 20.96 6.4 L 17.76 6.4 Q 17.6 7.04 17.6 8 Q 17.6 8.92 17.76 9.6 Q 17.879 10.078 17.91 10.733 A 10.123 10.123 0 0 1 17.92 11.2 A 8.945 8.945 0 0 1 17.892 11.934 Q 17.862 12.289 17.803 12.598 A 4.924 4.924 0 0 1 17.76 12.8 Q 17.879 13.278 17.91 13.933 A 10.123 10.123 0 0 1 17.92 14.4 A 8.945 8.945 0 0 1 17.892 15.134 Q 17.862 15.489 17.803 15.798 A 4.924 4.924 0 0 1 17.76 16 Q 17.879 16.478 17.91 17.133 A 10.123 10.123 0 0 1 17.92 17.6 A 8.945 8.945 0 0 1 17.892 18.334 Q 17.862 18.689 17.803 18.998 A 4.924 4.924 0 0 1 17.76 19.2 Q 17.879 19.678 17.91 20.333 A 10.123 10.123 0 0 1 17.92 20.8 A 8.945 8.945 0 0 1 17.892 21.534 Q 17.862 21.889 17.803 22.198 A 4.924 4.924 0 0 1 17.76 22.4 L 14.56 22.4 Q 14.4 21.72 14.4 20.8 Q 14.4 19.84 14.56 19.2 Q 14.4 18.52 14.4 17.6 Q 14.4 16.64 14.56 16 Q 14.4 15.32 14.4 14.4 Q 14.4 13.44 14.56 12.8 Q 14.4 12.12 14.4 11.2 Q 14.4 10.24 14.56 9.6 Q 14.4 8.92 14.4 8 Q 14.4 7.04 14.56 6.4 L 16.56 6.4 Q 16.679 6.878 16.71 7.533 A 10.123 10.123 0 0 1 16.72 8 A 8.945 8.945 0 0 1 16.692 8.734 Q 16.662 9.089 16.603 9.398 A 4.924 4.924 0 0 1 16.56 9.6 Z M 84.96 19.2 L 89.76 19.2 Q 89.879 19.678 89.91 20.333 A 10.123 10.123 0 0 1 89.92 20.8 A 8.945 8.945 0 0 1 89.892 21.534 Q 89.862 21.889 89.803 22.198 A 4.924 4.924 0 0 1 89.76 22.4 L 83.36 22.4 Q 83.2 21.72 83.2 20.8 Q 83.2 19.84 83.36 19.2 L 81.76 19.2 Q 81.6 18.52 81.6 17.6 Q 81.6 16.64 81.76 16 Q 81.6 15.32 81.6 14.4 Q 81.6 13.44 81.76 12.8 Q 81.6 12.12 81.6 11.2 Q 81.6 10.24 81.76 9.6 L 78.56 9.6 Q 78.4 8.92 78.4 8 Q 78.4 7.04 78.56 6.4 L 81.76 6.4 Q 81.6 5.72 81.6 4.8 Q 81.6 3.84 81.76 3.2 Q 81.6 2.52 81.6 1.6 Q 81.6 0.64 81.76 0 L 84.96 0 Q 85.079 0.478 85.11 1.133 A 10.123 10.123 0 0 1 85.12 1.6 A 8.945 8.945 0 0 1 85.092 2.334 Q 85.062 2.689 85.003 2.998 A 4.924 4.924 0 0 1 84.96 3.2 Q 85.079 3.678 85.11 4.333 A 10.123 10.123 0 0 1 85.12 4.8 A 8.945 8.945 0 0 1 85.092 5.534 Q 85.062 5.889 85.003 6.198 A 4.924 4.924 0 0 1 84.96 6.4 L 89.76 6.4 Q 89.879 6.878 89.91 7.533 A 10.123 10.123 0 0 1 89.92 8 A 8.945 8.945 0 0 1 89.892 8.734 Q 89.862 9.089 89.803 9.398 A 4.924 4.924 0 0 1 89.76 9.6 L 84.96 9.6 Q 85.079 10.078 85.11 10.733 A 10.123 10.123 0 0 1 85.12 11.2 A 8.945 8.945 0 0 1 85.092 11.934 Q 85.062 12.289 85.003 12.598 A 4.924 4.924 0 0 1 84.96 12.8 Q 85.079 13.278 85.11 13.933 A 10.123 10.123 0 0 1 85.12 14.4 A 8.945 8.945 0 0 1 85.092 15.134 Q 85.062 15.489 85.003 15.798 A 4.924 4.924 0 0 1 84.96 16 Q 85.079 16.478 85.11 17.133 A 10.123 10.123 0 0 1 85.12 17.6 A 8.945 8.945 0 0 1 85.092 18.334 Q 85.062 18.689 85.003 18.998 A 4.924 4.924 0 0 1 84.96 19.2 Z M 148.96 19.2 L 153.76 19.2 Q 153.879 19.678 153.91 20.333 A 10.123 10.123 0 0 1 153.92 20.8 A 8.945 8.945 0 0 1 153.892 21.534 Q 153.862 21.889 153.803 22.198 A 4.924 4.924 0 0 1 153.76 22.4 L 147.36 22.4 Q 147.2 21.72 147.2 20.8 Q 147.2 19.84 147.36 19.2 L 145.76 19.2 Q 145.6 18.52 145.6 17.6 Q 145.6 16.64 145.76 16 Q 145.6 15.32 145.6 14.4 Q 145.6 13.44 145.76 12.8 Q 145.6 12.12 145.6 11.2 Q 145.6 10.24 145.76 9.6 L 142.56 9.6 Q 142.4 8.92 142.4 8 Q 142.4 7.04 142.56 6.4 L 145.76 6.4 Q 145.6 5.72 145.6 4.8 Q 145.6 3.84 145.76 3.2 Q 145.6 2.52 145.6 1.6 Q 145.6 0.64 145.76 0 L 148.96 0 Q 149.079 0.478 149.11 1.133 A 10.123 10.123 0 0 1 149.12 1.6 A 8.945 8.945 0 0 1 149.092 2.334 Q 149.062 2.689 149.003 2.998 A 4.924 4.924 0 0 1 148.96 3.2 Q 149.079 3.678 149.11 4.333 A 10.123 10.123 0 0 1 149.12 4.8 A 8.945 8.945 0 0 1 149.092 5.534 Q 149.062 5.889 149.003 6.198 A 4.924 4.924 0 0 1 148.96 6.4 L 153.76 6.4 Q 153.879 6.878 153.91 7.533 A 10.123 10.123 0 0 1 153.92 8 A 8.945 8.945 0 0 1 153.892 8.734 Q 153.862 9.089 153.803 9.398 A 4.924 4.924 0 0 1 153.76 9.6 L 148.96 9.6 Q 149.079 10.078 149.11 10.733 A 10.123 10.123 0 0 1 149.12 11.2 A 8.945 8.945 0 0 1 149.092 11.934 Q 149.062 12.289 149.003 12.598 A 4.924 4.924 0 0 1 148.96 12.8 Q 149.079 13.278 149.11 13.933 A 10.123 10.123 0 0 1 149.12 14.4 A 8.945 8.945 0 0 1 149.092 15.134 Q 149.062 15.489 149.003 15.798 A 4.924 4.924 0 0 1 148.96 16 Q 149.079 16.478 149.11 17.133 A 10.123 10.123 0 0 1 149.12 17.6 A 8.945 8.945 0 0 1 149.092 18.334 Q 149.062 18.689 149.003 18.998 A 4.924 4.924 0 0 1 148.96 19.2 Z M 75.36 16 L 74.16 16 Q 74.279 16.478 74.31 17.133 A 10.123 10.123 0 0 1 74.32 17.6 A 8.945 8.945 0 0 1 74.292 18.334 Q 74.262 18.689 74.203 18.998 A 4.924 4.924 0 0 1 74.16 19.2 L 72.16 19.2 Q 72.279 19.678 72.31 20.333 A 10.123 10.123 0 0 1 72.32 20.8 A 8.945 8.945 0 0 1 72.292 21.534 Q 72.262 21.889 72.203 22.198 A 4.924 4.924 0 0 1 72.16 22.4 L 65.76 22.4 Q 65.6 21.72 65.6 20.8 Q 65.6 19.84 65.76 19.2 L 63.76 19.2 Q 63.6 18.52 63.6 17.6 Q 63.6 16.64 63.76 16 L 62.56 16 Q 62.4 15.32 62.4 14.4 Q 62.4 13.44 62.56 12.8 L 63.76 12.8 Q 63.6 12.12 63.6 11.2 Q 63.6 10.24 63.76 9.6 L 65.76 9.6 Q 65.6 8.92 65.6 8 Q 65.6 7.04 65.76 6.4 L 72.16 6.4 Q 72.279 6.878 72.31 7.533 A 10.123 10.123 0 0 1 72.32 8 A 8.945 8.945 0 0 1 72.292 8.734 Q 72.262 9.089 72.203 9.398 A 4.924 4.924 0 0 1 72.16 9.6 L 74.16 9.6 Q 74.279 10.078 74.31 10.733 A 10.123 10.123 0 0 1 74.32 11.2 A 8.945 8.945 0 0 1 74.292 11.934 Q 74.262 12.289 74.203 12.598 A 4.924 4.924 0 0 1 74.16 12.8 L 75.36 12.8 Q 75.479 13.278 75.51 13.933 A 10.123 10.123 0 0 1 75.52 14.4 A 8.945 8.945 0 0 1 75.492 15.134 Q 75.462 15.489 75.403 15.798 A 4.924 4.924 0 0 1 75.36 16 Z M 139.36 16 L 138.16 16 Q 138.279 16.478 138.31 17.133 A 10.123 10.123 0 0 1 138.32 17.6 A 8.945 8.945 0 0 1 138.292 18.334 Q 138.262 18.689 138.203 18.998 A 4.924 4.924 0 0 1 138.16 19.2 L 136.16 19.2 Q 136.279 19.678 136.31 20.333 A 10.123 10.123 0 0 1 136.32 20.8 A 8.945 8.945 0 0 1 136.292 21.534 Q 136.262 21.889 136.203 22.198 A 4.924 4.924 0 0 1 136.16 22.4 L 129.76 22.4 Q 129.6 21.72 129.6 20.8 Q 129.6 19.84 129.76 19.2 L 127.76 19.2 Q 127.6 18.52 127.6 17.6 Q 127.6 16.64 127.76 16 L 126.56 16 Q 126.4 15.32 126.4 14.4 Q 126.4 13.44 126.56 12.8 L 127.76 12.8 Q 127.6 12.12 127.6 11.2 Q 127.6 10.24 127.76 9.6 L 129.76 9.6 Q 129.6 8.92 129.6 8 Q 129.6 7.04 129.76 6.4 L 136.16 6.4 Q 136.279 6.878 136.31 7.533 A 10.123 10.123 0 0 1 136.32 8 A 8.945 8.945 0 0 1 136.292 8.734 Q 136.262 9.089 136.203 9.398 A 4.924 4.924 0 0 1 136.16 9.6 L 138.16 9.6 Q 138.279 10.078 138.31 10.733 A 10.123 10.123 0 0 1 138.32 11.2 A 8.945 8.945 0 0 1 138.292 11.934 Q 138.262 12.289 138.203 12.598 A 4.924 4.924 0 0 1 138.16 12.8 L 139.36 12.8 Q 139.479 13.278 139.51 13.933 A 10.123 10.123 0 0 1 139.52 14.4 A 8.945 8.945 0 0 1 139.492 15.134 Q 139.462 15.489 139.403 15.798 A 4.924 4.924 0 0 1 139.36 16 Z M 187.36 16 L 186.16 16 Q 186.279 16.478 186.31 17.133 A 10.123 10.123 0 0 1 186.32 17.6 A 8.945 8.945 0 0 1 186.292 18.334 Q 186.262 18.689 186.203 18.998 A 4.924 4.924 0 0 1 186.16 19.2 L 184.16 19.2 Q 184.279 19.678 184.31 20.333 A 10.123 10.123 0 0 1 184.32 20.8 A 8.945 8.945 0 0 1 184.292 21.534 Q 184.262 21.889 184.203 22.198 A 4.924 4.924 0 0 1 184.16 22.4 L 177.76 22.4 Q 177.6 21.72 177.6 20.8 Q 177.6 19.84 177.76 19.2 L 175.76 19.2 Q 175.6 18.52 175.6 17.6 Q 175.6 16.64 175.76 16 L 174.56 16 Q 174.4 15.32 174.4 14.4 Q 174.4 13.44 174.56 12.8 L 175.76 12.8 Q 175.6 12.12 175.6 11.2 Q 175.6 10.24 175.76 9.6 L 177.76 9.6 Q 177.6 8.92 177.6 8 Q 177.6 7.04 177.76 6.4 L 184.16 6.4 Q 184.279 6.878 184.31 7.533 A 10.123 10.123 0 0 1 184.32 8 A 8.945 8.945 0 0 1 184.292 8.734 Q 184.262 9.089 184.203 9.398 A 4.924 4.924 0 0 1 184.16 9.6 L 186.16 9.6 Q 186.279 10.078 186.31 10.733 A 10.123 10.123 0 0 1 186.32 11.2 A 8.945 8.945 0 0 1 186.292 11.934 Q 186.262 12.289 186.203 12.598 A 4.924 4.924 0 0 1 186.16 12.8 L 187.36 12.8 Q 187.479 13.278 187.51 13.933 A 10.123 10.123 0 0 1 187.52 14.4 A 8.945 8.945 0 0 1 187.492 15.134 Q 187.462 15.489 187.403 15.798 A 4.924 4.924 0 0 1 187.36 16 Z M 9.76 22.4 L 0.16 22.4 Q 0 21.72 0 20.8 Q 0 19.84 0.16 19.2 L 3.36 19.2 Q 3.2 18.52 3.2 17.6 Q 3.2 16.64 3.36 16 Q 3.2 15.32 3.2 14.4 Q 3.2 13.44 3.36 12.8 Q 3.2 12.12 3.2 11.2 Q 3.2 10.24 3.36 9.6 L 0.96 9.6 Q 0.8 8.92 0.8 8 Q 0.8 7.04 0.96 6.4 L 6.56 6.4 Q 6.679 6.878 6.71 7.533 A 10.123 10.123 0 0 1 6.72 8 A 8.945 8.945 0 0 1 6.692 8.734 Q 6.662 9.089 6.603 9.398 A 4.924 4.924 0 0 1 6.56 9.6 Q 6.679 10.078 6.71 10.733 A 10.123 10.123 0 0 1 6.72 11.2 A 8.945 8.945 0 0 1 6.692 11.934 Q 6.662 12.289 6.603 12.598 A 4.924 4.924 0 0 1 6.56 12.8 Q 6.679 13.278 6.71 13.933 A 10.123 10.123 0 0 1 6.72 14.4 A 8.945 8.945 0 0 1 6.692 15.134 Q 6.662 15.489 6.603 15.798 A 4.924 4.924 0 0 1 6.56 16 Q 6.679 16.478 6.71 17.133 A 10.123 10.123 0 0 1 6.72 17.6 A 8.945 8.945 0 0 1 6.692 18.334 Q 6.662 18.689 6.603 18.998 A 4.924 4.924 0 0 1 6.56 19.2 L 9.76 19.2 Q 9.879 19.678 9.91 20.333 A 10.123 10.123 0 0 1 9.92 20.8 A 8.945 8.945 0 0 1 9.892 21.534 Q 9.862 21.889 9.803 22.198 A 4.924 4.924 0 0 1 9.76 22.4 Z M 169.76 22.4 L 160.16 22.4 Q 160 21.72 160 20.8 Q 160 19.84 160.16 19.2 L 163.36 19.2 Q 163.2 18.52 163.2 17.6 Q 163.2 16.64 163.36 16 Q 163.2 15.32 163.2 14.4 Q 163.2 13.44 163.36 12.8 Q 163.2 12.12 163.2 11.2 Q 163.2 10.24 163.36 9.6 L 160.96 9.6 Q 160.8 8.92 160.8 8 Q 160.8 7.04 160.96 6.4 L 166.56 6.4 Q 166.679 6.878 166.71 7.533 A 10.123 10.123 0 0 1 166.72 8 A 8.945 8.945 0 0 1 166.692 8.734 Q 166.662 9.089 166.603 9.398 A 4.924 4.924 0 0 1 166.56 9.6 Q 166.679 10.078 166.71 10.733 A 10.123 10.123 0 0 1 166.72 11.2 A 8.945 8.945 0 0 1 166.692 11.934 Q 166.662 12.289 166.603 12.598 A 4.924 4.924 0 0 1 166.56 12.8 Q 166.679 13.278 166.71 13.933 A 10.123 10.123 0 0 1 166.72 14.4 A 8.945 8.945 0 0 1 166.692 15.134 Q 166.662 15.489 166.603 15.798 A 4.924 4.924 0 0 1 166.56 16 Q 166.679 16.478 166.71 17.133 A 10.123 10.123 0 0 1 166.72 17.6 A 8.945 8.945 0 0 1 166.692 18.334 Q 166.662 18.689 166.603 18.998 A 4.924 4.924 0 0 1 166.56 19.2 L 169.76 19.2 Q 169.879 19.678 169.91 20.333 A 10.123 10.123 0 0 1 169.92 20.8 A 8.945 8.945 0 0 1 169.892 21.534 Q 169.862 21.889 169.803 22.198 A 4.924 4.924 0 0 1 169.76 22.4 Z M 22.31 10.733 Q 22.279 10.078 22.16 9.6 Q 22 8.92 22 8 Q 22 7.04 22.16 6.4 L 25.76 6.4 Q 25.879 6.878 25.91 7.533 A 10.123 10.123 0 0 1 25.92 8 A 8.945 8.945 0 0 1 25.892 8.734 Q 25.862 9.089 25.803 9.398 A 4.924 4.924 0 0 1 25.76 9.6 L 27.36 9.6 Q 27.479 10.078 27.51 10.733 A 10.123 10.123 0 0 1 27.52 11.2 A 8.945 8.945 0 0 1 27.492 11.934 Q 27.462 12.289 27.403 12.598 A 4.924 4.924 0 0 1 27.36 12.8 Q 27.479 13.278 27.51 13.933 A 10.123 10.123 0 0 1 27.52 14.4 A 8.945 8.945 0 0 1 27.492 15.134 Q 27.462 15.489 27.403 15.798 A 4.924 4.924 0 0 1 27.36 16 Q 27.479 16.478 27.51 17.133 A 10.123 10.123 0 0 1 27.52 17.6 A 8.945 8.945 0 0 1 27.492 18.334 Q 27.462 18.689 27.403 18.998 A 4.924 4.924 0 0 1 27.36 19.2 Q 27.479 19.678 27.51 20.333 A 10.123 10.123 0 0 1 27.52 20.8 A 8.945 8.945 0 0 1 27.492 21.534 Q 27.462 21.889 27.403 22.198 A 4.924 4.924 0 0 1 27.36 22.4 L 24.16 22.4 Q 24 21.72 24 20.8 Q 24 19.84 24.16 19.2 Q 24 18.52 24 17.6 Q 24 16.64 24.16 16 Q 24 15.32 24 14.4 Q 24 13.44 24.16 12.8 Q 24 12.12 24 11.2 Q 24 10.24 24.16 9.6 L 22.16 9.6 M 70.96 16 L 72.16 16 Q 72 15.32 72 14.4 Q 72 13.44 72.16 12.8 L 70.96 12.8 Q 70.8 12.12 70.8 11.2 Q 70.8 10.24 70.96 9.6 L 66.96 9.6 Q 67.079 10.078 67.11 10.733 A 10.123 10.123 0 0 1 67.12 11.2 A 8.945 8.945 0 0 1 67.092 11.934 Q 67.062 12.289 67.003 12.598 A 4.924 4.924 0 0 1 66.96 12.8 L 65.76 12.8 Q 65.879 13.278 65.91 13.933 A 10.123 10.123 0 0 1 65.92 14.4 A 8.945 8.945 0 0 1 65.892 15.134 Q 65.862 15.489 65.803 15.798 A 4.924 4.924 0 0 1 65.76 16 L 66.96 16 Q 67.079 16.478 67.11 17.133 A 10.123 10.123 0 0 1 67.12 17.6 A 8.945 8.945 0 0 1 67.092 18.334 Q 67.062 18.689 67.003 18.998 A 4.924 4.924 0 0 1 66.96 19.2 L 70.96 19.2 Q 70.8 18.52 70.8 17.6 Q 70.8 16.64 70.96 16 Z M 134.96 16 L 136.16 16 Q 136 15.32 136 14.4 Q 136 13.44 136.16 12.8 L 134.96 12.8 Q 134.8 12.12 134.8 11.2 Q 134.8 10.24 134.96 9.6 L 130.96 9.6 Q 131.079 10.078 131.11 10.733 A 10.123 10.123 0 0 1 131.12 11.2 A 8.945 8.945 0 0 1 131.092 11.934 Q 131.062 12.289 131.003 12.598 A 4.924 4.924 0 0 1 130.96 12.8 L 129.76 12.8 Q 129.879 13.278 129.91 13.933 A 10.123 10.123 0 0 1 129.92 14.4 A 8.945 8.945 0 0 1 129.892 15.134 Q 129.862 15.489 129.803 15.798 A 4.924 4.924 0 0 1 129.76 16 L 130.96 16 Q 131.079 16.478 131.11 17.133 A 10.123 10.123 0 0 1 131.12 17.6 A 8.945 8.945 0 0 1 131.092 18.334 Q 131.062 18.689 131.003 18.998 A 4.924 4.924 0 0 1 130.96 19.2 L 134.96 19.2 Q 134.8 18.52 134.8 17.6 Q 134.8 16.64 134.96 16 Z M 182.96 16 L 184.16 16 Q 184 15.32 184 14.4 Q 184 13.44 184.16 12.8 L 182.96 12.8 Q 182.8 12.12 182.8 11.2 Q 182.8 10.24 182.96 9.6 L 178.96 9.6 Q 179.079 10.078 179.11 10.733 A 10.123 10.123 0 0 1 179.12 11.2 A 8.945 8.945 0 0 1 179.092 11.934 Q 179.062 12.289 179.003 12.598 A 4.924 4.924 0 0 1 178.96 12.8 L 177.76 12.8 Q 177.879 13.278 177.91 13.933 A 10.123 10.123 0 0 1 177.92 14.4 A 8.945 8.945 0 0 1 177.892 15.134 Q 177.862 15.489 177.803 15.798 A 4.924 4.924 0 0 1 177.76 16 L 178.96 16 Q 179.079 16.478 179.11 17.133 A 10.123 10.123 0 0 1 179.12 17.6 A 8.945 8.945 0 0 1 179.092 18.334 Q 179.062 18.689 179.003 18.998 A 4.924 4.924 0 0 1 178.96 19.2 L 182.96 19.2 Q 182.8 18.52 182.8 17.6 Q 182.8 16.64 182.96 16 Z M 6.56 3.2 L 3.36 3.2 Q 3.2 2.52 3.2 1.6 Q 3.2 0.64 3.36 0 L 6.56 0 Q 6.679 0.478 6.71 1.133 A 10.123 10.123 0 0 1 6.72 1.6 A 8.945 8.945 0 0 1 6.692 2.334 Q 6.662 2.689 6.603 2.998 A 4.924 4.924 0 0 1 6.56 3.2 Z M 166.56 3.2 L 163.36 3.2 Q 163.2 2.52 163.2 1.6 Q 163.2 0.64 163.36 0 L 166.56 0 Q 166.679 0.478 166.71 1.133 A 10.123 10.123 0 0 1 166.72 1.6 A 8.945 8.945 0 0 1 166.692 2.334 Q 166.662 2.689 166.603 2.998 A 4.924 4.924 0 0 1 166.56 3.2 Z" vector-effect="non-scaling-stroke"/></g></svg>