<?xml version="1.0" standalone="no"?>
<!DOCTYPE svg PUBLIC "-//W3C//DTD SVG 20010904//EN"
 "http://www.w3.org/TR/2001/REC-SVG-20010904/DTD/svg10.dtd">
<svg version="1.0" xmlns="http://www.w3.org/2000/svg"
 width="900.000000pt" height="660.000000pt" viewBox="0 0 900.000000 660.000000"
 preserveAspectRatio="xMidYMid meet">

<g transform="translate(0.000000,660.000000) scale(0.100000,-0.100000)"
fill="#FF0000" stroke="none">
<path d="M1640 6190 l0 -410 405 0 405 0 0 410 0 410 -405 0 -405 0 0 -410z"/>
<path d="M6550 6190 l0 -410 405 0 405 0 0 410 0 410 -405 0 -405 0 0 -410z"/>
<path d="M0 4145 l0 -1635 410 0 410 0 0 -410 0 -410 410 0 410 0 0 -410 0
-410 405 0 405 0 0 410 0 410 2050 0 2050 0 0 -410 0 -410 405 0 405 0 0 410
0 410 410 0 410 0 0 410 0 410 410 0 410 0 0 1635 0 1635 -407 -2 -408 -3 -3
-817 -2 -818 -410 0 -410 0 0 410 0 410 -410 0 -410 0 0 410 0 410 -405 0
-405 0 0 -410 0 -410 -1230 0 -1230 0 0 410 0 410 -405 0 -405 0 0 -410 0
-410 -410 0 -410 0 0 -410 0 -410 -410 0 -410 0 0 820 0 820 -410 0 -410 0 0
-1635z m3272 -406 c2 -226 1 -413 -1 -415 -2 -2 -188 -4 -413 -4 l-408 0 0
408 c0 225 3 412 7 415 3 4 188 7 409 7 l404 0 2 -411z m3276 -6 l2 -413 -410
0 -410 0 0 415 0 415 408 -2 407 -3 3 -412z"/>
<path d="M820 460 l0 -410 405 0 405 0 2 78 c4 177 4 718 0 730 -3 9 -94 12
-408 12 l-404 0 0 -410z"/>
<path d="M7368 833 c-1 -21 -2 -206 -2 -410 l-1 -373 408 0 407 0 0 410 0 410
-405 0 -405 0 -2 -37z"/>
</g>
</svg>
